<?xml version="1.0" encoding="UTF-8"?>
<svg version="1.1" xmlns="http://www.w3.org/2000/svg" width="677" height="607">
<path d="M0 0 C5.30030701 8.21525051 1.6715754 22.30910726 1 31.6875 C0.42348741 39.80220493 -0.14357162 47.86128397 0 56 C-0.33 56 -0.66 56 -1 56 C-2.06805973 67.94937722 -3.13174737 79.89913207 -4.18881226 91.8494873 C-4.69275265 97.54394151 -5.20032029 103.23804593 -5.71269226 108.93174744 C-5.99625955 112.09317899 -6.27584428 115.25495331 -6.55429077 118.4168396 C-6.68313979 119.87062536 -6.81365065 121.32426495 -6.94595337 122.77774048 C-7.61980121 130.19114885 -8.14464016 137.49241774 -7.94628906 144.93896484 C-8 147 -8 147 -9 149 C-9.29780802 151.55951024 -9.54484101 154.10464958 -9.75610352 156.67163086 C-9.82452454 157.46380005 -9.89294556 158.25596924 -9.96343994 159.07214355 C-10.18945846 161.70270435 -10.40937955 164.33373379 -10.62890625 166.96484375 C-10.78419096 168.7965332 -10.93970672 170.62820308 -11.09544373 172.45985413 C-11.42173684 176.30903127 -11.74498182 180.15844962 -12.06616211 184.00805664 C-12.47603473 188.9174288 -12.89369652 193.82610049 -13.31375217 198.73461056 C-13.63707499 202.52383433 -13.95599833 206.313419 -14.27366447 210.1031208 C-14.42577439 211.91114495 -14.57925854 213.71905407 -14.7341938 215.5268383 C-15.51770629 224.69550688 -16.27967448 233.78696916 -16 243 C-16.66 243 -17.32 243 -18 243 C-18.103125 243.763125 -18.20625 244.52625 -18.3125 245.3125 C-19.05594134 248.21867978 -19.65886963 249.19913049 -22 251 C-25.81570358 252.27190119 -29.0626185 252.80747703 -33 252 C-40.59360031 247.56370663 -46.70666181 240.52202507 -52.8298893 234.28987503 C-54.58651661 232.50270582 -56.35006361 230.72262463 -58.11552429 228.94418335 C-63.12715114 223.89308486 -68.1255417 218.82895759 -73.12133789 213.76220703 C-76.19230643 210.64857733 -79.27051328 207.54225209 -82.35310936 204.44013596 C-83.5222221 203.26046133 -84.68841075 202.07788127 -85.8515873 200.89235306 C-87.4715653 199.24124686 -89.1004974 197.59948993 -90.73168945 195.95947266 C-91.65496536 195.0235025 -92.57824127 194.08753235 -93.52949524 193.12319946 C-96.41344256 190.64310499 -96.41344256 190.64310499 -100 190 C-104.63446485 192.41798166 -107.50351669 195.51525254 -110.703125 199.609375 C-111.13109375 200.06828125 -111.5590625 200.5271875 -112 201 C-112.66 201 -113.32 201 -114 201 C-114.33 201.99 -114.66 202.98 -115 204 C-116.41796875 205.359375 -116.41796875 205.359375 -118.1875 206.75 C-121.39318961 209.3853522 -123.96673633 212.22160117 -126.6015625 215.4140625 C-128.50396407 217.57153468 -130.75677068 219.20541654 -133 221 C-134.55680114 222.71827786 -136.04082495 224.48636465 -137.52734375 226.265625 C-140.22104838 229.43805168 -143.06661265 232.28767808 -146.375 234.8125 C-149.21743509 237.18119591 -151.43177301 239.75714377 -153.8203125 242.5703125 C-157.07687121 246.20038331 -160.57442095 249.58274055 -164.08813477 252.96289062 C-165.42830111 254.27253558 -166.71883474 255.63258224 -168 257 C-168 257.66 -168 258.32 -168 259 C-169.66200071 260.0077358 -171.32971992 261.00604716 -173 262 C-174.72752623 263.55358374 -176.40626646 265.16223559 -178.04736328 266.80685425 C-178.52996675 267.28774887 -179.01257023 267.7686435 -179.50979805 268.26411068 C-181.11808823 269.86911915 -182.71914743 271.48114754 -184.3203125 273.09326172 C-185.47505447 274.24856812 -186.63023759 275.40343373 -187.78582764 276.55789185 C-190.91836053 279.68985116 -194.04468925 282.82793799 -197.16994476 285.96715689 C-200.4445075 289.25424029 -203.72475211 292.53564365 -207.00439453 295.81765747 C-213.21779055 302.03726973 -219.42607313 308.26196024 -225.63253212 314.48849404 C-232.67872859 321.55699251 -239.73055448 328.61986315 -246.78288651 335.68223929 C-258.84132083 347.75804251 -270.8955503 359.83802962 -282.94500732 371.92279053 C-283.45492155 372.43418394 -283.96483578 372.94557736 -284.49020195 373.47246754 C-285.84547049 374.83169888 -287.20067676 376.19099231 -288.55587769 377.55029106 C-289.36243805 378.35869501 -290.16899841 379.16709896 -291 380 C-291.87109406 380.87394976 -292.74218811 381.74789951 -293.63967896 382.6483326 C-295.34494593 384.34734756 -297.07212049 386.02447069 -298.8125 387.6875 C-301.77615497 392.17532039 -302.06305281 395.76127578 -301 401 C-299.28838406 404.40925951 -296.93536533 406.4584727 -293.625 408.375 C-287.46134106 409.84253784 -283.43974546 409.11582587 -278 406 C-275.44825459 403.88503446 -275.44825459 403.88503446 -273.02220154 401.38296509 C-272.5591614 400.92248823 -272.09612126 400.46201136 -271.61904961 399.98758066 C-270.08054224 398.45398587 -268.55295413 396.90997134 -267.02514648 395.36572266 C-265.91973248 394.25946177 -264.81365615 393.15386237 -263.70697021 392.0488739 C-260.71066187 389.05342508 -257.72368546 386.04882511 -254.73830676 383.04248857 C-251.60835811 379.89374383 -248.4698713 376.75353278 -245.33229065 373.61239624 C-239.38961324 367.66039851 -233.45462009 361.70079933 -227.52236181 355.73841894 C-220.78765633 348.9702514 -214.04449842 342.21053254 -207.300578 335.45154881 C-195.76931168 323.89423461 -184.24434727 312.33066774 -172.72657776 300.75990295 C-171.99529532 300.02529234 -171.99529532 300.02529234 -171.2492395 299.27584112 C-169.95384079 297.97450073 -168.65853735 296.6730655 -167.36324215 295.37162209 C-164.08565104 292.0824088 -160.80658556 288.79524295 -157.5 285.53515625 C-153.09074197 281.17412448 -148.91229521 276.80653412 -145 272 C-143.3540349 270.31288577 -141.68762851 268.6454378 -140 267 C-136.72306914 263.74474713 -133.48672583 260.45326049 -130.26850891 257.14025879 C-127.78244812 254.58663551 -125.28248674 252.04679662 -122.78198242 249.50732422 C-121.47337723 248.17357537 -120.16929471 246.83537339 -118.86987305 245.49267578 C-110.72277388 237.0823007 -103.82297281 230.47041247 -92.4375 226.875 C-85.31231385 227.13409768 -78.90347409 232.09652591 -74 237 C-72.35344379 239.51422677 -70.84616764 242.0639716 -69.39453125 244.6953125 C-68.13446281 247.01287924 -68.13446281 247.01287924 -66.36328125 248.53125 C-64.56498322 250.46867137 -64.54413329 251.76678668 -64.375 254.375 C-64.20301939 256.7581599 -64.00093786 258.9956656 -63.49503064 261.33375603 C-63.00691069 263.96277889 -62.87247355 266.34098977 -62.86857224 269.01146603 C-62.86473109 270.00207183 -62.86088995 270.99267763 -62.8569324 272.01330179 C-62.85779888 273.09421722 -62.85866537 274.17513265 -62.85955811 275.2888031 C-62.85510142 277.01998771 -62.85510142 277.01998771 -62.8505547 278.78614575 C-62.84338356 281.98587598 -62.84069609 285.18557348 -62.83995724 288.38531053 C-62.83810358 291.83815318 -62.83055449 295.29098425 -62.82382202 298.74382019 C-62.81024861 306.29380851 -62.80421502 313.84379151 -62.79981136 321.39379001 C-62.79704626 326.11217343 -62.79280831 330.8305548 -62.78830719 335.54893684 C-62.77611391 348.6233873 -62.76581595 361.69783612 -62.7624321 374.77229214 C-62.76221253 375.60889626 -62.76199297 376.44550038 -62.76176675 377.30745614 C-62.76154847 378.14602444 -62.76133019 378.98459274 -62.7611053 379.84857219 C-62.76066184 381.54772977 -62.76021528 383.24688735 -62.75976562 384.94604492 C-62.7595442 385.78887966 -62.75932277 386.6317144 -62.75909463 387.50008959 C-62.75515101 401.1411759 -62.7377106 414.78220864 -62.7144061 428.42327427 C-62.69064997 442.44243613 -62.67822825 456.46157118 -62.67706418 470.48075348 C-62.67614961 478.34618647 -62.67045274 486.21154972 -62.65224457 494.07696342 C-62.63678569 500.77825702 -62.63175691 507.47945936 -62.63998267 514.18076741 C-62.64386933 517.59517962 -62.6430579 521.00940839 -62.62892532 524.42379761 C-62.5175681 556.8139555 -62.5175681 556.8139555 -69.5 570.125 C-69.84111816 570.78749756 -70.18223633 571.44999512 -70.53369141 572.13256836 C-77.71746712 585.38473569 -89.68529657 596.03304472 -104 601 C-104.66 601 -105.32 601 -106 601 C-106.33 601.66 -106.66 602.32 -107 603 C-112.64023138 603.99256129 -118.17590796 604.14275083 -123.89007378 604.12584114 C-124.7540024 604.12729458 -125.61793102 604.12874802 -126.5080393 604.13024551 C-129.39884054 604.13389078 -132.28958856 604.13042591 -135.1803894 604.12698364 C-137.27556578 604.12813604 -139.37074195 604.12972437 -141.46591771 604.13171089 C-147.22054173 604.13588791 -152.97514919 604.13382082 -158.72977328 604.13072467 C-164.93710871 604.12846416 -171.14444127 604.13195346 -177.35177612 604.13470459 C-188.80858387 604.13889722 -200.26538422 604.13852969 -211.72219193 604.13579312 C-222.30749258 604.13327715 -232.8927913 604.13262105 -243.47809219 604.13381577 C-244.18035519 604.13389215 -244.88261819 604.13396854 -245.60616189 604.13404724 C-248.4569282 604.13435858 -251.30769452 604.13467698 -254.15846083 604.135007 C-280.90082398 604.13806595 -307.64318376 604.13529273 -334.38554638 604.1299101 C-358.13838038 604.12516554 -381.89120902 604.12558826 -405.64404297 604.13037109 C-432.33460832 604.1357275 -459.0251707 604.13784797 -485.71573651 604.13475883 C-488.56191643 604.13443812 -491.40809635 604.13412528 -494.25427628 604.13381577 C-494.95507049 604.13373669 -495.6558647 604.13365761 -496.3778951 604.13357614 C-506.95449512 604.1324393 -517.53109299 604.13376779 -528.10769272 604.13629532 C-540.13691304 604.13915567 -552.16612566 604.13834129 -564.19534574 604.13301457 C-570.33320148 604.13038625 -576.47104633 604.12935782 -582.60890198 604.13266373 C-588.22823123 604.13564456 -593.84753952 604.13400399 -599.46686687 604.12868617 C-601.49909349 604.12756963 -603.53132188 604.12813628 -605.56354736 604.13056196 C-608.32847129 604.13360889 -611.09332371 604.13047714 -613.85824394 604.12584114 C-614.64469451 604.12818231 -615.43114508 604.13052347 -616.24142748 604.13293558 C-627.75337855 604.09443649 -627.75337855 604.09443649 -633 603 C-633.33 602.34 -633.66 601.68 -634 601 C-636.12363335 599.93375294 -638.2748536 598.92221413 -640.4375 597.9375 C-647.3572433 594.62468831 -652.64246363 590.53426066 -658 585 C-658.7425 584.24332031 -659.485 583.48664062 -660.25 582.70703125 C-664.54593312 578.1189115 -667.48674011 573.75955391 -670 568 C-670.66 568.33 -671.32 568.66 -672 569 C-672.1953125 567.17708333 -672.390625 565.35416667 -672.5859375 563.53125 C-672.97399698 560.82593324 -672.97399698 560.82593324 -674.00916481 557.59641552 C-675.39496556 552.06831752 -675.28316601 546.59605715 -675.26742554 540.92610168 C-675.27195665 539.7237907 -675.27648776 538.52147971 -675.28115618 537.28273505 C-675.29159398 533.96237142 -675.29313161 530.64222514 -675.29076743 527.32186067 C-675.290358 523.73410975 -675.30141046 520.14639071 -675.31088257 516.55865479 C-675.32746684 509.53553536 -675.33299097 502.51244952 -675.33410732 495.48931215 C-675.33505911 489.77736687 -675.3391759 484.06543262 -675.34550858 478.35349083 C-675.36311467 462.14203315 -675.37234854 445.93060191 -675.37084763 429.71913461 C-675.37076772 428.84590954 -675.3706878 427.97268448 -675.37060547 427.07299805 C-675.37052371 426.19870074 -675.37044195 425.32440343 -675.37035771 424.42361226 C-675.36954519 410.26146474 -675.38867588 396.09942366 -675.4168822 381.93730692 C-675.44564759 367.37903355 -675.45942046 352.82081202 -675.45769465 338.26250952 C-675.45703197 330.09588256 -675.46247066 321.92936717 -675.48405075 313.76276588 C-675.50231082 306.80823573 -675.50657052 299.85386773 -675.4930319 292.89932392 C-675.4865262 289.35535296 -675.48629725 285.81169262 -675.5037384 282.26775169 C-675.52250499 278.41463163 -675.50985191 274.56195902 -675.49447632 270.70881653 C-675.50476344 269.60431068 -675.51505057 268.49980483 -675.52564943 267.3618291 C-675.43549732 257.0842312 -672.92664909 247.28130488 -667.5 238.5 C-666.9328125 237.5615625 -666.365625 236.623125 -665.78125 235.65625 C-657.0191368 222.58994084 -644.01379757 214.56193624 -628.9609375 210.54296875 C-619.11306489 208.73709237 -609.13964703 208.77893742 -599.16259766 208.66162109 C-597.46507434 208.63899874 -595.76755318 208.61621392 -594.07003403 208.59328079 C-589.4483726 208.53291211 -584.82665555 208.48009341 -580.20487165 208.43005419 C-577.2656858 208.39818402 -574.32651792 208.36490433 -571.38734818 208.33158493 C-539.55499306 207.97853716 -507.73153863 207.9989801 -475.8984375 208.2265625 C-474.83994378 208.23397052 -473.78145006 208.24137854 -472.69088078 208.24901104 C-453.23427349 208.38526643 -433.77782545 208.5407878 -414.32151377 208.71413267 C-403.38120117 208.81156836 -392.44089725 208.9004382 -381.50038588 208.97256219 C-375.38631881 209.01353214 -369.27257854 209.067975 -363.15872359 209.13312173 C-359.40983149 209.16993647 -355.66093764 209.19408967 -351.91192436 209.21462822 C-350.18285706 209.22665111 -348.45381675 209.2438869 -346.72485924 209.26678276 C-344.3650397 209.29729697 -342.00583312 209.30896694 -339.64584351 209.31607056 C-337.67191903 209.33322837 -337.67191903 209.33322837 -335.65811729 209.3507328 C-329.88186381 208.79691743 -325.2956719 206.83910711 -321.2109375 202.6015625 C-320.57929688 201.95703125 -319.94765625 201.3125 -319.296875 200.6484375 C-318.66265625 199.98070312 -318.0284375 199.31296875 -317.375 198.625 C-316.73304688 197.965 -316.09109375 197.305 -315.4296875 196.625 C-314.18145928 195.34096195 -312.93699891 194.05324776 -311.69677734 192.76147461 C-308.72848927 189.68000721 -305.69026682 186.6721019 -302.625 183.6875 C-300.53979113 181.5526433 -298.61661169 179.39531511 -296.6875 177.125 C-293.71101823 173.68465094 -290.52105689 170.74205235 -287.0625 167.796875 C-284.82434924 165.84697093 -282.68404836 163.82608661 -280.5625 161.75 C-279.90378906 161.10546875 -279.24507813 160.4609375 -278.56640625 159.796875 C-276.77930795 157.97962401 -276.77930795 157.97962401 -276 155 C-274.35666496 153.96210419 -272.68756133 152.96432076 -271 152 C-269.24850835 150.41754725 -269.24850835 150.41754725 -268 149 C-268.33 148.34 -268.66 147.68 -269 147 C-268.278125 146.79375 -267.55625 146.5875 -266.8125 146.375 C-264.05249768 145.02566553 -263.15478986 144.19979435 -261.3125 141.875 C-260.549375 140.92625 -259.78625 139.9775 -259 139 C-258.34 139 -257.68 139 -257 139 C-257 138.34 -257 137.68 -257 137 C-255.390625 135.44921875 -255.390625 135.44921875 -253.25 133.6875 C-250.89939355 131.69441586 -248.93081642 129.91352052 -247 127.5 C-245.17538345 125.21922931 -243.40477322 123.56561097 -241.1875 121.6875 C-237.53022905 118.58394671 -234.47428686 115.21616087 -231.4453125 111.50390625 C-230.96835937 111.00761719 -230.49140625 110.51132813 -230 110 C-229.34 110 -228.68 110 -228 110 C-227.34 108.68 -226.68 107.36 -226 106 C-225.34 106 -224.68 106 -224 106 C-223.60941406 105.10087891 -223.60941406 105.10087891 -223.2109375 104.18359375 C-221.91715749 101.85061626 -220.70531236 100.70222219 -218.625 99.0625 C-215.66196277 96.59536859 -213.04335065 94.3204448 -211 91 C-211.34007662 87.13063636 -212.33092255 85.17366838 -215.0793457 82.48242188 C-215.72704422 81.83825317 -216.37474274 81.19408447 -217.04206848 80.53039551 C-217.7461937 79.85005249 -218.45031891 79.16970947 -219.17578125 78.46875 C-219.89734909 77.75521362 -220.61891693 77.04167725 -221.36235046 76.30651855 C-223.66980867 74.02804433 -225.99046342 71.76360695 -228.3125 69.5 C-230.62121506 67.23389182 -232.92707513 64.9649517 -235.23051453 62.69348145 C-236.66373999 61.28182375 -238.10045243 59.87369514 -239.54109192 58.46960449 C-249.87280816 48.34205735 -249.87280816 48.34205735 -250 43 C-248.82398941 39.21063254 -248.01103097 36.73675135 -244.75871277 34.366745 C-241.76268353 32.88242665 -239.28378084 32.28771214 -235.9855957 31.75708008 C-234.72466599 31.54959641 -233.46373627 31.34211273 -232.16459656 31.12834167 C-230.73087555 30.90424651 -229.29710123 30.68049227 -227.86328125 30.45703125 C-226.30126952 30.20572591 -224.73936921 29.95372732 -223.17756653 29.7011261 C-217.45467872 28.78161515 -211.72745771 27.89052803 -206 27 C-204.85267143 26.82111992 -203.70534286 26.64223984 -202.52324677 26.45793915 C-179.92879493 22.9355092 -157.32592605 19.46795346 -134.72259521 16.00305176 C-125.15916979 14.53698622 -115.59611544 13.068532 -106.03356028 11.59680033 C-103.86207096 11.26273445 -101.69051456 10.92910744 -99.5189476 10.59554672 C-84.24544572 8.24828027 -68.98119072 5.85679956 -53.73681641 3.32666016 C-52.45371865 3.11412629 -51.1706209 2.90159243 -49.8486414 2.68261814 C-43.83891801 1.68528314 -37.83101194 0.67847347 -31.82548523 -0.34382629 C-29.70960868 -0.69835569 -27.59370937 -1.05274929 -25.4777832 -1.40698242 C-24.07271106 -1.65133183 -24.07271106 -1.65133183 -22.63925362 -1.9006176 C-6.66680236 -4.5529382 -6.66680236 -4.5529382 0 0 Z " fill="#191919" transform="translate(675,3)"/>
<path d="M0 0 C1.12320648 -0.00335861 2.24641296 -0.00671722 3.40365601 -0.01017761 C7.09553145 -0.01963172 10.78736127 -0.02162789 14.47924805 -0.02270508 C17.06080646 -0.02592134 19.64236469 -0.02928569 22.22392273 -0.03279114 C27.62796529 -0.03876844 33.03198995 -0.04067549 38.43603516 -0.04003906 C44.65432405 -0.03943888 50.87252603 -0.04998564 57.09079295 -0.06578273 C63.10556798 -0.08051016 69.12029634 -0.08402508 75.13509178 -0.08342934 C77.67902163 -0.08460446 80.22295222 -0.08899981 82.7668705 -0.0967617 C86.33423578 -0.10662806 89.90138069 -0.10365742 93.46875 -0.09765625 C94.50550369 -0.10327576 95.54225739 -0.10889526 96.61042786 -0.11468506 C117.28956529 -0.02688831 129.42671085 7.03147063 143.70776367 21.37426758 C146.49077287 24.23861899 149.1300605 27.20944104 151.72143555 30.24682617 C154.03281249 32.81737352 156.60091973 34.98481574 159.2487793 37.19995117 C161.86989859 39.53922968 164.20991102 42.08577825 166.6159668 44.64526367 C177.25469504 55.37252502 189.03815428 59.30910103 203.86167908 59.45756531 C205.65056297 59.46080559 205.65056297 59.46080559 207.47558594 59.46411133 C208.75461792 59.47415695 210.0336499 59.48420258 211.35144043 59.49455261 C214.83218895 59.52167368 218.3128974 59.53694839 221.79372334 59.54998064 C225.44125882 59.56569019 229.08871342 59.59245514 232.7361908 59.61801147 C239.63134929 59.66466152 246.52652323 59.70147194 253.42175812 59.73468435 C261.27676477 59.77300351 269.13168992 59.82238777 276.9866277 59.8726685 C293.13384872 59.9757833 309.28111512 60.0651097 325.4284668 60.14526367 C324.13985653 66.24039024 319.71733642 69.89977857 315.4284668 74.14526367 C312.84306266 76.70568636 310.26010064 79.26853969 307.6784668 81.83276367 C306.99397461 82.50887695 306.30948242 83.18499023 305.60424805 83.8815918 C304.95327148 84.5293457 304.30229492 85.17709961 303.6315918 85.84448242 C303.04023438 86.43060303 302.44887695 87.01672363 301.83959961 87.62060547 C300.33016856 89.10908186 300.33016856 89.10908186 299.4284668 91.14526367 C298.7684668 91.14526367 298.1084668 91.14526367 297.4284668 91.14526367 C297.4284668 91.80526367 297.4284668 92.46526367 297.4284668 93.14526367 C296.7478418 93.68151367 296.0672168 94.21776367 295.3659668 94.77026367 C292.86065722 96.79583311 291.13683668 98.62156664 289.1159668 101.08276367 C284.08749875 106.866581 279.70169972 110.21367038 271.89099693 110.76791573 C265.8271888 111.18287521 259.79142662 111.27493784 253.71548462 111.24533081 C252.60029965 111.24406854 251.48511468 111.24280627 250.33613622 111.24150574 C246.63332594 111.23616736 242.9305758 111.22364876 239.2277832 111.21118164 C236.55910706 111.20598337 233.89043356 111.20120826 231.22175598 111.19702148 C225.49087242 111.18735158 219.76000471 111.17432425 214.02913284 111.15929794 C204.95940164 111.13581314 195.88966917 111.12289287 186.81991577 111.11160278 C183.70962708 111.10760227 180.59933848 111.10353348 177.48904991 111.09944344 C176.71195703 111.09842421 175.93486414 111.09740498 175.13422299 111.09635486 C166.30749671 111.08463448 157.48077428 111.07075021 148.65405273 111.0559082 C147.84807327 111.05455577 147.0420938 111.05320334 146.21169071 111.05180992 C133.1498129 111.02962741 120.08796083 110.9997507 107.02610345 110.96794079 C93.58529552 110.93549027 80.14450103 110.91466478 66.70365846 110.90366852 C58.42971384 110.89646947 50.15589757 110.87985113 41.88200007 110.85086776 C36.20765194 110.83179009 30.5333546 110.82378437 24.85897471 110.82427274 C21.59233418 110.82421007 18.3259358 110.8177014 15.05933189 110.8011055 C-8.15173979 110.49813892 -8.15173979 110.49813892 -29.8840332 117.89526367 C-30.55499023 118.24669434 -31.22594727 118.598125 -31.91723633 118.96020508 C-40.57764927 123.61108996 -46.82367499 128.927465 -52.74731445 136.81323242 C-54.54750778 139.11455023 -56.49064173 141.09939044 -58.5715332 143.14526367 C-58.64127395 130.2010533 -58.69446632 117.25688818 -58.72696972 104.31252766 C-58.74257559 98.30089457 -58.7637206 92.28939075 -58.79785156 86.27783203 C-58.8306267 80.4682254 -58.84842434 74.65874253 -58.85616493 68.84905052 C-58.86167599 66.64086143 -58.87243709 64.43267853 -58.88872337 62.22454262 C-59.02543575 42.90733979 -58.08600137 28.22836972 -44.3840332 13.33276367 C-31.95878353 1.48098707 -16.28553874 -0.00707728 0 0 Z " fill="#FED12D" transform="translate(58.571533203125,72.854736328125)"/>
<path d="M0 0 C1.02609375 -0.03738281 2.0521875 -0.07476562 3.109375 -0.11328125 C10.93419238 0.94754598 16.41690099 8.19605555 21.71191406 13.515625 C22.64592041 14.44612671 23.57992676 15.37662842 24.54223633 16.33532715 C27.0920691 18.87607851 29.63557871 21.42307154 32.17769337 23.97154236 C34.84298046 26.6419085 37.51316145 29.30737398 40.18255615 31.97363281 C44.66143987 36.4488837 49.1361028 40.92832231 53.60839844 45.41015625 C58.77725939 50.58991373 63.95330375 55.76240908 69.13311219 60.93121719 C73.58532312 65.37435165 78.03362413 69.82137234 82.47868133 74.27166367 C85.13143158 76.92752992 87.78550987 79.58203111 90.44312286 82.23303223 C93.40305286 85.18611103 96.35474113 88.1472957 99.30566406 91.109375 C100.18671814 91.98638062 101.06777222 92.86338623 101.9755249 93.76696777 C102.77736206 94.57444458 103.57919922 95.38192139 104.40533447 96.21386719 C105.45278524 97.26244904 105.45278524 97.26244904 106.52139664 98.33221436 C109.83750071 102.13113864 110.48601483 105.06665126 110.7109375 110.1171875 C109.21421779 117.24563221 102.17633185 122.67506264 97.26220703 127.57495117 C96.35442505 128.48784409 95.44664307 129.400737 94.51135254 130.34129333 C92.0325459 132.83343528 89.54742959 135.31919128 87.06067896 137.80340362 C84.98133557 139.88167401 82.90498371 141.9629207 80.82857025 144.04411775 C75.92923075 148.95453258 71.02460663 153.85962447 66.11669922 158.76147461 C61.06037575 163.8117534 56.01331063 168.87115151 50.97066224 173.93508166 C46.63284069 178.29053308 42.28921904 182.64014019 37.94094741 186.98515874 C35.34743356 189.5768625 32.75617769 192.17072495 30.17053604 194.77028465 C27.28764223 197.66811638 24.39274973 200.55366693 21.49658203 203.43823242 C20.21991165 204.72636841 20.21991165 204.72636841 18.91744995 206.04052734 C13.4686287 211.44117638 8.86206229 215.73831704 0.8125 215.75 C-4.5629964 215.5893194 -7.46619382 214.54721079 -11.75 211.3125 C-15.72073048 207.0282908 -16.9106655 203.77770231 -17.0625 198 C-17.09988281 197.07574219 -17.13726562 196.15148437 -17.17578125 195.19921875 C-16.30916005 189.32368605 -11.89779769 185.2136587 -7.81713867 181.16845703 C-7.10161079 180.45490051 -7.10161079 180.45490051 -6.37162781 179.72692871 C-4.80830926 178.17005069 -3.23812851 176.62028786 -1.66796875 175.0703125 C-0.56893001 173.97755606 0.52958726 172.88427491 1.62760925 171.79049683 C4.51241569 168.91894775 7.40273815 166.05302227 10.29473877 163.1887207 C14.91291291 158.61375774 19.52441426 154.03209613 24.13251305 149.44698715 C25.73132638 147.85827597 27.33357467 146.27309346 28.93623352 144.68826294 C33.74363561 139.92017647 38.42127134 135.1051857 42.82261658 129.95706177 C44.6450173 127.85738028 46.59681055 125.93192264 48.6171875 124.0234375 C49.35710937 123.30929687 50.09703125 122.59515625 50.859375 121.859375 C52.38592722 120.39599046 53.9199715 118.94038631 55.4609375 117.4921875 C58.47629502 114.56176963 60.87305722 112.10102356 62.6953125 108.2890625 C61.62971236 101.16636682 53.07764293 95.01100909 48.07714844 90.08959961 C47.05871857 89.08058846 47.05871857 89.08058846 46.01971436 88.05119324 C44.56014792 86.6053706 43.09950349 85.16063553 41.63787079 83.71690178 C39.3226272 81.42852234 37.01197731 79.13559878 34.70269775 76.84120178 C28.1419613 70.32300631 21.57850944 63.80762543 14.99902344 57.30834961 C10.96229532 53.32017697 6.93542753 49.32227653 2.91480255 45.317873 C1.38585844 43.79880934 -0.14673023 42.28340461 -1.68305206 40.7718029 C-3.82961505 38.65904399 -5.96338563 36.53410452 -8.09472656 34.40600586 C-8.72749512 33.78918945 -9.36026367 33.17237305 -10.01220703 32.53686523 C-14.71706542 27.79929471 -17.26877 23.62095625 -18.25 16.875 C-17.41315463 10.91247671 -14.46984327 6.87235785 -10.0625 2.875 C-6.46974041 0.44745974 -4.33491642 0.10244205 0 0 Z " fill="#FDD42C" transform="translate(95.75,279.6875)"/>
<path d="M0 0 C1.14681747 -0.00571014 2.29363495 -0.01142029 3.47520447 -0.01730347 C5.371856 -0.01898026 5.371856 -0.01898026 7.30682373 -0.02069092 C8.64712155 -0.02531847 9.98741805 -0.03034305 11.32771301 -0.03573608 C14.97457485 -0.04887034 18.62141826 -0.05530733 22.26830006 -0.05974674 C24.5468273 -0.06267653 26.8253495 -0.06678121 29.10387421 -0.07125092 C36.23299265 -0.08493012 43.36209958 -0.09459403 50.49123025 -0.09845281 C58.72009632 -0.10293121 66.94879609 -0.12046713 75.17761159 -0.1494534 C81.53778144 -0.1710791 87.89790454 -0.1811576 94.25811076 -0.18249393 C98.05671372 -0.18354156 101.85516044 -0.18943999 105.65372467 -0.20731354 C109.22915235 -0.22380912 112.80430663 -0.22594267 116.37975883 -0.21717453 C118.31329716 -0.21603863 120.24682646 -0.22974557 122.18031311 -0.243927 C132.86724811 -0.19253477 132.86724811 -0.19253477 137.59881592 3.14044189 C141.17755289 7.30808495 141.05516572 11.40693819 140.97381592 16.64044189 C140.98541748 17.38680908 140.99701904 18.13317627 141.00897217 18.90216064 C140.98481826 23.45114621 140.61764657 26.52294018 137.59881592 30.14044189 C131.91260808 35.35048417 125.9411954 34.70639584 118.52850342 34.65802002 C116.55191742 34.66853394 116.55191742 34.66853394 114.53540039 34.67926025 C110.93201134 34.6974499 107.3290819 34.69044449 103.72568512 34.67774391 C99.94884533 34.66759346 96.17204402 34.67701525 92.39520264 34.68328857 C86.0534969 34.69055906 79.71197769 34.68099313 73.37030029 34.66192627 C66.04587034 34.64015852 58.72188582 34.64721032 51.39746666 34.66923189 C45.10087467 34.68740309 38.80441652 34.68993586 32.50780678 34.67947721 C28.75061368 34.67325167 24.99362973 34.67238057 21.2364502 34.68562317 C17.04707603 34.69935854 12.85846576 34.68030407 8.66912842 34.65802002 C7.4284259 34.66611694 6.18772339 34.67421387 4.90942383 34.68255615 C-1.44564121 34.61989286 -5.65198647 34.57491851 -10.40118408 30.14044189 C-13.22085205 25.91093994 -12.80667427 22.30368993 -12.83868408 17.32794189 C-12.87155518 16.43784424 -12.90442627 15.54774658 -12.93829346 14.63067627 C-12.97455962 10.18312564 -12.87103187 7.10130931 -9.99884033 3.56622314 C-6.39499981 0.20083222 -4.81532194 0.01431467 0 0 Z " fill="#FBD12C" transform="translate(257.40118408203125,495.85955810546875)"/>
<path d="M0 0 C5.0399676 0.02851573 10.07994158 0.05566164 15.11991847 0.08247924 C25.77135741 0.13931526 36.42273912 0.20242281 47.07410049 0.27230072 C50.68904668 0.29593881 54.30399621 0.31762299 57.91896439 0.33760834 C62.13561549 0.36113223 66.35220998 0.38932986 70.56880629 0.42116475 C72.10275657 0.43202427 73.6367189 0.44131928 75.17068899 0.44887805 C90.97695061 0.52895676 90.97695061 0.52895676 97.5993309 1.65892792 C97.9293309 2.31892792 98.2593309 2.97892792 98.5993309 3.65892792 C5.2093309 3.65892792 -88.1806691 3.65892792 -184.4006691 3.65892792 C-184.4006691 2.99892792 -184.4006691 2.33892792 -184.4006691 1.65892792 C-176.37675301 0.68057622 -168.4039302 0.42935674 -160.32645035 0.30736542 C-159.61062035 0.29579407 -158.89479034 0.28422272 -158.15726852 0.27230072 C-152.34272911 0.17879579 -146.52802605 0.10449607 -140.7131691 0.03392792 C-139.38893496 0.0171336 -139.38893496 0.0171336 -138.03794861 0 C-92.02669342 -0.57783172 -46.01244933 -0.26067555 0 0 Z " fill="#2D2413" transform="translate(233.4006690979004,211.34107208251953)"/>
<path d="M0 0 C3.375 4.5 3.375 4.5 3.36914349 8.98999405 C3.37511663 10.00117617 3.38108978 11.01235829 3.38724393 12.05418229 C3.3785054 13.16312403 3.36976688 14.27206578 3.36076355 15.41461182 C3.36332682 16.5940926 3.3658901 17.77357337 3.36853105 18.988796 C3.37262213 22.26354421 3.36323135 25.53793732 3.34819686 28.81264353 C3.3352536 32.34362183 3.33962475 35.87458327 3.34190369 39.40557861 C3.34347751 45.52354109 3.33405698 51.64140766 3.31719017 57.75934601 C3.29281943 66.60486539 3.28499688 75.45033836 3.2812262 84.29588768 C3.27465869 98.64682902 3.2546894 112.99771924 3.22631836 127.34863281 C3.19878554 141.29003646 3.17754816 155.23142622 3.16479492 169.17285156 C3.16400675 170.03205539 3.16321858 170.89125923 3.16240653 171.77649954 C3.15849144 176.08682944 3.15470031 180.39715943 3.15097082 184.70748949 C3.11986558 220.47169611 3.06702163 256.23584334 3 292 C2.34 292.33 1.68 292.66 1 293 C0.67 196.31 0.34 99.62 0 0 Z " fill="#050505" transform="translate(608,258)"/>
<path d="M0 0 C0.99 0.33 1.98 0.66 3 1 C-46 50 -46 50 -48.64888 52.63520813 C-51.32783216 55.32973852 -53.88666822 58.12285085 -56.4375 60.9375 C-64.52788165 69.79496768 -64.52788165 69.79496768 -68 73 C-68.66 73 -69.32 73 -70 73 C-70 73.66 -70 74.32 -70 75 C-70.66 74.67 -71.32 74.34 -72 74 C-69.5046705 69.23294137 -66.10922435 65.83928761 -62.32543945 62.09838867 C-61.652005 61.42466217 -60.97857056 60.75093567 -60.284729 60.05679321 C-58.06562247 57.839076 -55.83952395 55.62852033 -53.61328125 53.41796875 C-52.07013584 51.87855487 -50.52743245 50.33869779 -48.9851532 48.79841614 C-44.93058322 44.75147151 -40.87004233 40.71056984 -36.80822754 36.67089844 C-32.66214759 32.54530047 -28.52174439 28.41401409 -24.38085938 24.28320312 C-16.25945121 16.18322552 -8.13172361 8.08962075 0 0 Z " fill="#131313" transform="translate(508,298)"/>
<path d="M0 0 C3.07596404 2.22363643 5.61983249 4.92334949 8.2421875 7.65625 C9.01055939 8.43311157 9.77893127 9.20997314 10.57058716 10.01037598 C13.01983175 12.49318809 15.44739043 14.99604749 17.875 17.5 C19.53246694 19.18756152 21.19130567 20.8737769 22.8515625 22.55859375 C26.91708439 26.69024488 30.9649984 30.83854917 35 35 C34.01 35.33 33.02 35.66 32 36 C31.60798401 35.60132217 31.21596802 35.20264435 30.81207275 34.79188538 C26.73308558 30.64656391 22.6436049 26.51181186 18.54785156 22.38305664 C17.02038881 20.84050102 15.49562858 19.29526446 13.97363281 17.74731445 C11.78634129 15.52366313 9.58953413 13.30981239 7.390625 11.09765625 C6.7113092 10.4028566 6.03199341 9.70805695 5.33209229 8.99220276 C4.69173035 8.35161423 4.05136841 7.7110257 3.39160156 7.05102539 C2.83200745 6.48476944 2.27241333 5.91851349 1.69586182 5.33509827 C-0.25619311 3.79830729 -1.5277369 3.23461583 -4 3 C-6.04291182 4.26660533 -8.04690112 5.59886384 -10 7 C-10.66 7 -11.32 7 -12 7 C-9.62360163 1.25703726 -6.2312962 -1.02787985 0 0 Z " fill="#151514" transform="translate(579,190)"/>
<path d="M0 0 C4.00105146 6.14495959 2.36026137 14.92926083 1 21.75 C0.67862048 23.16942621 0.350033 24.58736684 0 26 C-0.33 26 -0.66 26 -1 26 C-0.99476318 25.37955811 -0.98952637 24.75911621 -0.98413086 24.11987305 C-0.96334534 21.30909233 -0.95033483 18.49832779 -0.9375 15.6875 C-0.92912109 14.71103516 -0.92074219 13.73457031 -0.91210938 12.72851562 C-0.90888672 11.79072266 -0.90566406 10.85292969 -0.90234375 9.88671875 C-0.89710693 9.02264404 -0.89187012 8.15856934 -0.88647461 7.26831055 C-0.90664477 4.83271286 -0.90664477 4.83271286 -2 2 C-6.3534469 0.04934575 -10.14741951 -0.22148123 -14.875 -0.125 C-16.02742187 -0.10695312 -17.17984375 -0.08890625 -18.3671875 -0.0703125 C-19.23601563 -0.04710937 -20.10484375 -0.02390625 -21 0 C-20.67 -0.66 -20.34 -1.32 -20 -2 C-13.29109029 -4.09653428 -5.8706218 -4.00920513 0 0 Z " fill="#111110" transform="translate(675,3)"/>
<path d="M0 0 C0.33 0 0.66 0 1 0 C1.33 8.58 1.66 17.16 2 26 C1.67 26 1.34 26 1 26 C0.91959473 26.57032959 0.83918945 27.14065918 0.75634766 27.72827148 C0.38854943 30.29944866 0.00696895 32.86839151 -0.375 35.4375 C-0.50132812 36.33533203 -0.62765625 37.23316406 -0.7578125 38.15820312 C-0.88671875 39.01220703 -1.015625 39.86621094 -1.1484375 40.74609375 C-1.26364746 41.53685303 -1.37885742 42.3276123 -1.49755859 43.14233398 C-1.66336426 43.75536377 -1.82916992 44.36839355 -2 45 C-2.99 45.495 -2.99 45.495 -4 46 C-3.59405246 40.57374547 -3.18501876 35.14773543 -2.77319336 29.72192383 C-2.63368422 27.87823699 -2.4950008 26.03448747 -2.35717773 24.19067383 C-2.15828967 21.53189228 -1.95637825 18.87335449 -1.75390625 16.21484375 C-1.66321617 14.98942116 -1.66321617 14.98942116 -1.57069397 13.73924255 C-1.21580694 9.12303004 -0.70867255 4.57561783 0 0 Z " fill="#0E0E0E" transform="translate(673,33)"/>
<path d="M0 0 C0.66 0 1.32 0 2 0 C1.979375 1.11375 1.95875 2.2275 1.9375 3.375 C2.79480246 9.82732903 7.57798686 13.62031628 12 18 C13.23777239 19.24921454 14.47470173 20.49926478 15.7109375 21.75 C19.12033697 25.18747637 22.5545592 28.59866869 26 32 C25.34 32.66 24.68 33.32 24 34 C21.22165622 31.2465312 18.44672728 28.48966963 15.67480469 25.72973633 C14.27194373 24.33432717 12.86646058 22.94155582 11.4609375 21.54882812 C10.12675781 20.21948242 10.12675781 20.21948242 8.765625 18.86328125 C7.54020996 17.64572144 7.54020996 17.64572144 6.29003906 16.40356445 C-0.60234622 9.16949909 -0.60234622 9.16949909 -1 4 C-0.5625 1.6875 -0.5625 1.6875 0 0 Z " fill="#131110" transform="translate(426,42)"/>
<path d="M0 0 C2.46409458 2.44668049 4.90775531 4.9020884 7.2890625 7.4296875 C15.05853557 15.56294861 23.23738983 21.54784202 34 25 C34 25.33 34 25.66 34 26 C24.97912218 26.5143483 18.30701395 21.39237355 11.75 15.625 C2.92181946 7.27630531 2.92181946 7.27630531 0 3 C0 2.01 0 1.02 0 0 Z " fill="#0E0D0E" transform="translate(10,577)"/>
<path d="M0 0 C-2 2 -2 2 -4.97265625 3.484375 C-10.66622249 6.66698553 -14.93044384 11.61639582 -19.4375 16.25 C-20.35982422 17.18585938 -21.28214844 18.12171875 -22.23242188 19.0859375 C-24.49525985 21.38394912 -26.75076565 23.68868487 -29 26 C-29.33 25.01 -29.66 24.02 -30 23 C-27.2497945 20.20010351 -24.49287017 17.40701326 -21.72973633 14.61987305 C-20.33255206 13.20776623 -18.94064824 11.79044107 -17.54882812 10.37304688 C-16.66259766 9.48037109 -15.77636719 8.58769531 -14.86328125 7.66796875 C-14.05157471 6.84578857 -13.23986816 6.0236084 -12.40356445 5.17651367 C-8.41340961 1.5632856 -5.47349515 -0.46915673 0 0 Z " fill="#141414" transform="translate(579,233)"/>
<path d="M0 0 C6.89619584 -0.7774417 11.35880026 -0.04040405 16.9609375 4.15625 C21.84919 8.57627908 25.45597346 13.92260326 28 20 C28 20.99 28 21.98 28 23 C27.34 23 26.68 23 26 23 C25.68546875 22.33613281 25.3709375 21.67226562 25.046875 20.98828125 C21.07453797 12.79234491 17.39814783 7.01586825 9 3 C6.02645013 2.10562996 3.06692183 1.47565686 0 1 C0 0.67 0 0.34 0 0 Z " fill="#0F0F0F" transform="translate(580,232)"/>
<path d="M0 0 C12.40430691 10.34915547 12.40430691 10.34915547 13.87109375 14.4140625 C14 17 14 17 12.63671875 19.23828125 C11.99347656 19.92277344 11.35023438 20.60726562 10.6875 21.3125 C10.05199219 22.00988281 9.41648437 22.70726563 8.76171875 23.42578125 C7 25 7 25 5 25 C5 25.66 5 26.32 5 27 C4.34 26.67 3.68 26.34 3 26 C3.51691406 25.40832031 4.03382813 24.81664063 4.56640625 24.20703125 C5.22511719 23.41683594 5.88382812 22.62664062 6.5625 21.8125 C7.22378906 21.03519531 7.88507813 20.25789063 8.56640625 19.45703125 C10.21096612 17.11253893 10.21096612 17.11253893 10 14.48828125 C8.71910473 11.30105357 6.96883943 9.6805392 4.4375 7.375 C1.93359375 5.0859375 1.93359375 5.0859375 0 3 C0 2.01 0 1.02 0 0 Z " fill="#151413" transform="translate(454,77)"/>
<path d="M0 0 C5.43733055 4.52991796 10.46458931 9.34294216 15.4375 14.375 C16.16904297 15.11105469 16.90058594 15.84710938 17.65429688 16.60546875 C19.43852723 18.40136074 21.22036124 20.19955985 23 22 C22.01 22.33 21.02 22.66 20 23 C17.14213611 20.21624295 14.29418216 17.42276402 11.45507812 14.61987305 C10.48770741 13.66759721 9.51766243 12.71803016 8.54492188 11.77124023 C7.14795655 10.41062452 5.761317 9.03943236 4.375 7.66796875 C3.53710938 6.84578857 2.69921875 6.0236084 1.8359375 5.17651367 C0 3 0 3 0 0 Z " fill="#131312" transform="translate(615,227)"/>
<path d="M0 0 C0.33 0 0.66 0 1 0 C1.20638953 23.99516389 1.20638953 23.99516389 0 33 C-0.66 33 -1.32 33 -2 33 C-2.30885908 10.41896915 -2.30885908 10.41896915 0 0 Z " fill="#0E0D0D" transform="translate(669,82)"/>
<path d="M0 0 C0.33 0.66 0.66 1.32 1 2 C0.34 2 -0.32 2 -1 2 C-1.33 2.99 -1.66 3.98 -2 5 C-2.66 5 -3.32 5 -4 5 C-4.20625 5.556875 -4.4125 6.11375 -4.625 6.6875 C-6.1818007 9.30575572 -8.1089591 10.83507949 -10.484375 12.703125 C-12.22766409 14.11046141 -12.22766409 14.11046141 -14.125 16.6875 C-15.98915121 18.98661982 -17.28166167 19.93208137 -20 21 C-19.6869518 18.0782168 -19.18033109 17.14850796 -16.875 15.25 C-15.92625 14.5075 -14.9775 13.765 -14 13 C-12.13079574 10.90970706 -10.33262873 8.77445797 -8.55078125 6.609375 C-8.03902344 6.07828125 -7.52726562 5.5471875 -7 5 C-6.34 5 -5.68 5 -5 5 C-4.731875 4.360625 -4.46375 3.72125 -4.1875 3.0625 C-3 1 -3 1 0 0 Z " fill="#131211" transform="translate(452,108)"/>
<path d="M0 0 C0.33 0 0.66 0 1 0 C1.41277905 22.59489033 1.41277905 22.59489033 -1 33 C-1.33 33 -1.66 33 -2 33 C-2.2964981 21.83190472 -1.42033442 11.07099954 0 0 Z " fill="#090A0A" transform="translate(666,118)"/>
<path d="M0 0 C0.33 0 0.66 0 1 0 C1.05864392 3.66659815 1.09381108 7.33307364 1.125 11 C1.14175781 12.02996094 1.15851562 13.05992187 1.17578125 14.12109375 C1.21401983 20.12455155 0.75493524 25.2515507 -1 31 C-1.33 31 -1.66 31 -2 31 C-2.37534623 20.55286325 -1.21312497 10.35488814 0 0 Z " fill="#0C0C0C" transform="translate(661,177)"/>
<path d="M0 0 C0.71875 1.6640625 0.71875 1.6640625 1 4 C-2.70523974 10.81352419 -7.90104509 16.29872226 -14 21 C-14 18 -14 18 -12.4609375 16.30859375 C-11.77257812 15.69113281 -11.08421875 15.07367187 -10.375 14.4375 C-5.88550275 10.14771349 -2.93951861 5.43365561 0 0 Z " fill="#0F0F0F" transform="translate(603,572)"/>
<path d="M0 0 C0.33 0 0.66 0 1 0 C1.33 9.24 1.66 18.48 2 28 C2.66 27.34 3.32 26.68 4 26 C3.6875 29.375 3.6875 29.375 3 33 C2.01 33.66 1.02 34.32 0 35 C0 23.45 0 11.9 0 0 Z " fill="#F6C52E" transform="translate(0,181)"/>
<path d="M0 0 C0.33 0 0.66 0 1 0 C1.03738281 0.81984375 1.07476562 1.6396875 1.11328125 2.484375 C1.17902344 3.56203125 1.24476563 4.6396875 1.3125 5.75 C1.37050781 6.81734375 1.42851562 7.8846875 1.48828125 8.984375 C2.0391596 12.23077259 3.03002296 13.46165424 5 16 C4.67 16.99 4.34 17.98 4 19 C1.32364159 16.50206549 -0.6694543 14.42753477 -2 11 C-2.01171875 8.45703125 -2.01171875 8.45703125 -1.6875 5.8125 C-1.58824219 4.93207031 -1.48898437 4.05164063 -1.38671875 3.14453125 C-1 1 -1 1 0 0 Z " fill="#111010" transform="translate(372,392)"/>
<path d="M0 0 C0.66 0.33 1.32 0.66 2 1 C-2.46351289 6.22325977 -7.0744893 11.20922972 -12 16 C-12.33 15.34 -12.66 14.68 -13 14 C-8.83295817 9.14256071 -4.58155004 4.46980492 0 0 Z " fill="#0D0D0D" transform="translate(525,281)"/>
<path d="M0 0 C0 0.66 0 1.32 0 2 C-0.63808594 2.19335938 -1.27617188 2.38671875 -1.93359375 2.5859375 C-3.17302734 2.97652344 -3.17302734 2.97652344 -4.4375 3.375 C-5.67306641 3.75785156 -5.67306641 3.75785156 -6.93359375 4.1484375 C-9.17798016 4.80882227 -9.17798016 4.80882227 -10 7 C-12.64 7 -15.28 7 -18 7 C-18 6.34 -18 5.68 -18 5 C-17.09636719 4.72285156 -16.19273437 4.44570313 -15.26171875 4.16015625 C-14.08222656 3.79792969 -12.90273438 3.43570313 -11.6875 3.0625 C-9.92986328 2.52302734 -9.92986328 2.52302734 -8.13671875 1.97265625 C-1.7751004 0 -1.7751004 0 0 0 Z " fill="#111111" transform="translate(578,599)"/>
<path d="M0 0 C2.58340384 -0.02703562 5.16652308 -0.04685611 7.75 -0.0625 C8.47960937 -0.07087891 9.20921875 -0.07925781 9.9609375 -0.08789062 C13.48670558 -0.10391684 16.61034916 0.04707287 20 1 C20 1.66 20 2.32 20 3 C18.18757948 3.02687279 16.37504767 3.04633715 14.5625 3.0625 C13.55316406 3.07410156 12.54382813 3.08570313 11.50390625 3.09765625 C9 3 9 3 8 2 C6.65252916 1.76924918 5.29622435 1.58846937 3.9375 1.4375 C2.638125 1.293125 1.33875 1.14875 0 1 C0 0.67 0 0.34 0 0 Z " fill="#322917" transform="translate(323,212)"/>
<path d="M0 0 C0.57492188 0.23074219 1.14984375 0.46148437 1.7421875 0.69921875 C-0.02419394 2.18369891 -1.79607388 3.6616384 -3.5703125 5.13671875 C-4.55644531 5.96042969 -5.54257812 6.78414062 -6.55859375 7.6328125 C-9.2578125 9.69921875 -9.2578125 9.69921875 -12.2578125 10.69921875 C-10.82540562 7.36924193 -9.07544726 5.29992915 -6.3828125 2.88671875 C-5.36574219 1.94892578 -5.36574219 1.94892578 -4.328125 0.9921875 C-2.2578125 -0.30078125 -2.2578125 -0.30078125 0 0 Z " fill="#14120F" transform="translate(28.2578125,222.30078125)"/>
<path d="M0 0 C0.33 0 0.66 0 1 0 C1.61802575 10.7639485 1.61802575 10.7639485 -0.625 15.25 C-3.60873162 17.44853908 -5.3748235 17.41195187 -9 17 C-7.32226851 15.88151234 -5.6295238 14.78251675 -3.890625 13.76171875 C-1.2642292 11.31439539 -1.20334503 9.32592398 -0.75 5.8125 C-0.60046875 4.72582031 -0.4509375 3.63914063 -0.296875 2.51953125 C-0.19890625 1.68808594 -0.1009375 0.85664063 0 0 Z " fill="#070708" transform="translate(656,237)"/>
<path d="M0 0 C0.66 0 1.32 0 2 0 C0.41332422 3.90285767 -2.13350481 6.33520982 -5.125 9.25 C-6.03507812 10.14203125 -6.94515625 11.0340625 -7.8828125 11.953125 C-8.58148438 12.62859375 -9.28015625 13.3040625 -10 14 C-10.33 13.01 -10.66 12.02 -11 11 C-10.01 10.67 -9.02 10.34 -8 10 C-7.29848848 8.6846659 -6.63474075 7.34882408 -6 6 C-4.5 4.25 -4.5 4.25 -3 3 C-2.34 3 -1.68 3 -1 3 C-0.67 2.01 -0.34 1.02 0 0 Z " fill="#312514" transform="translate(119,427)"/>
<path d="M0 0 C-3.65988816 3.65988816 -8.99738966 3.05470803 -13.9375 3.0625 C-15.29173445 3.04667422 -16.64595503 3.02763357 -18 3 C-18 2.34 -18 1.68 -18 1 C-11.97403427 -0.0712828 -6.11090483 -0.09945415 0 0 Z " fill="#0F0F0E" transform="translate(462,33)"/>
<path d="M0 0 C0.33 0 0.66 0 1 0 C1.37634203 6.80203375 0.77471079 11.75690073 -2 18 C-2.66 18 -3.32 18 -4 18 C-2.66666667 12 -1.33333333 6 0 0 Z " fill="#0D0D0D" transform="translate(609,552)"/>
<path d="M0 0 C0.33 0 0.66 0 1 0 C1.1567564 7.71589817 0.67453101 15.31516461 0 23 C-0.33 23 -0.66 23 -1 23 C-1.33 17.06 -1.66 11.12 -2 5 C-1.67 5 -1.34 5 -1 5 C-0.67 3.35 -0.34 1.7 0 0 Z " fill="#20201F" transform="translate(675,22)"/>
<path d="M0 0 C2.80561393 1.40280696 3.00680507 3.0509005 4.125 5.9375 C4.47820313 6.83339844 4.83140625 7.72929688 5.1953125 8.65234375 C6 11 6 11 6 13 C5.34 13 4.68 13 4 13 C3.34 11.68 2.68 10.36 2 9 C1.01 9.495 1.01 9.495 0 10 C0 6.7 0 3.4 0 0 Z " fill="#111110" transform="translate(3,562)"/>
<path d="M0 0 C0.33 0 0.66 0 1 0 C0.67 6.93 0.34 13.86 0 21 C-0.33 21 -0.66 21 -1 21 C-1.22537111 17.87598221 -1.42738648 14.75088667 -1.625 11.625 C-1.68945312 10.73554688 -1.75390625 9.84609375 -1.8203125 8.9296875 C-1.871875 8.07890625 -1.9234375 7.228125 -1.9765625 6.3515625 C-2.02893066 5.56604004 -2.08129883 4.78051758 -2.13525391 3.97119141 C-2 2 -2 2 0 0 Z " fill="#212121" transform="translate(660,203)"/>
<path d="M0 0 C-1.26351118 2.52702236 -2.36000747 2.85106587 -4.875 4.0625 C-5.92300781 4.57490234 -5.92300781 4.57490234 -6.9921875 5.09765625 C-9 6 -9 6 -12 7 C-9.52030127 1.00739475 -6.36870588 -0.43422995 0 0 Z " fill="#0F0F10" transform="translate(579,190)"/>
<path d="M0 0 C0.66 0.33 1.32 0.66 2 1 C0.73657512 2.48549956 -0.5360103 3.96321189 -1.8125 5.4375 C-2.52019531 6.26121094 -3.22789062 7.08492188 -3.95703125 7.93359375 C-6 10 -6 10 -9 11 C-8.52634425 6.73709821 -6.07761678 4.78451042 -3 2 C-2.01 1.34 -1.02 0.68 0 0 Z " fill="#0F0F0F" transform="translate(538,268)"/>
<path d="M0 0 C0.66 0.66 1.32 1.32 2 2 C2.66 1.34 3.32 0.68 4 0 C3.6875 3.375 3.6875 3.375 3 7 C2.01 7.66 1.02 8.32 0 9 C0 6.03 0 3.06 0 0 Z " fill="#E6BE2B" transform="translate(0,207)"/>
<path d="M0 0 C0.66 0.33 1.32 0.66 2 1 C0.70700306 3.88437779 -0.65941363 5.87219421 -3 8 C-3.66 7.34 -4.32 6.68 -5 6 C-3.35 4.02 -1.7 2.04 0 0 Z " fill="#F9DE30" transform="translate(250,497)"/>
<path d="M0 0 C-1.5830577 4.2742558 -4.50568404 6.26531794 -8 9 C-7.53918323 4.85264908 -4.48412936 0 0 0 Z " fill="#332715" transform="translate(134,414)"/>
<path d="M0 0 C1.33998047 0.06960937 1.33998047 0.06960937 2.70703125 0.140625 C3.60808594 0.17671875 4.50914062 0.2128125 5.4375 0.25 C6.46810547 0.31960937 6.46810547 0.31960937 7.51953125 0.390625 C4.63324724 1.96616535 1.98610741 2.85338873 -1.23046875 3.515625 C-2.42929687 3.76699219 -2.42929687 3.76699219 -3.65234375 4.0234375 C-4.255625 4.14460938 -4.85890625 4.26578125 -5.48046875 4.390625 C-3.17521711 0.50003419 -3.17521711 0.50003419 0 0 Z " fill="#090909" transform="translate(435.48046875,35.609375)"/>
<path d="M0 0 C0 0.33 0 0.66 0 1 C-4.40914783 2.10228696 -8.48382401 2.07654536 -13 2 C-8.24378872 -1.17080752 -5.58805025 -1.14301028 0 0 Z " fill="#241E13" transform="translate(51,215)"/>
<path d="M0 0 C0 4.24645065 -1.81750806 6.38524772 -4 10 C-4.6875 8.3125 -4.6875 8.3125 -5 6 C-2.73846154 1.36923077 -2.73846154 1.36923077 0 0 Z " fill="#0F0E0C" transform="translate(11,238)"/>
<path d="M0 0 C0.66 0.33 1.32 0.66 2 1 C-3.14285714 7.57142857 -3.14285714 7.57142857 -7 9 C-5.44499019 5.18315774 -2.96404505 2.80804268 0 0 Z " fill="#0E0D0C" transform="translate(429,130)"/>
<path d="M0 0 C0.66 0.33 1.32 0.66 2 1 C0.02 3.31 -1.96 5.62 -4 8 C-4.99 7.67 -5.98 7.34 -7 7 C-4.69 4.69 -2.38 2.38 0 0 Z " fill="#111111" transform="translate(544,219)"/>
<path d="M0 0 C0.66 0.33 1.32 0.66 2 1 C-0.48952921 3.66735273 -2.63408134 5.55746343 -6 7 C-4.60667426 3.63279613 -3.0210714 2.0140476 0 0 Z " fill="#262118" transform="translate(418,141)"/>
<path d="M0 0 C0.99 0.33 1.98 0.66 3 1 C-2.75 6 -2.75 6 -5 6 C-5 5.34 -5 4.68 -5 4 C-2.6875 1.8125 -2.6875 1.8125 0 0 Z " fill="#101010" transform="translate(399,407)"/>
<path d="M0 0 C1.32 0.33 2.64 0.66 4 1 C1.60490662 3.89932357 -0.31245243 4.50168276 -4 5 C-2.68 3.35 -1.36 1.7 0 0 Z " fill="#E9CC2C" transform="translate(153,395)"/>
<path d="M0 0 C0.99 0.33 1.98 0.66 3 1 C-0.465 3.97 -0.465 3.97 -4 7 C-3.04065919 3.16263678 -2.76390737 2.40339772 0 0 Z " fill="#121212" transform="translate(449,357)"/>
<path d="M0 0 C-1.875 3.875 -1.875 3.875 -3 5 C-4.99958364 5.04080783 -7.00045254 5.04254356 -9 5 C-8.01 4.34 -7.02 3.68 -6 3 C-5.319375 2.46375 -4.63875 1.9275 -3.9375 1.375 C-2 0 -2 0 0 0 Z " fill="#0E0D0D" transform="translate(656,249)"/>
<path d="M0 0 C0.66 0.33 1.32 0.66 2 1 C-0.52788007 3.79872437 -2.20411134 5.45773019 -6 6 C-6 5.34 -6 4.68 -6 4 C-4.03852126 2.61061923 -2.03833424 1.2739589 0 0 Z " fill="#0C0D0D" transform="translate(585,593)"/>
<path d="M0 0 C0.7425 0.0825 1.485 0.165 2.25 0.25 C0.06722366 2.43277634 -2.02127689 3.81742037 -4.75 5.25 C-5.41 4.92 -6.07 4.59 -6.75 4.25 C-3.42692308 0.31153846 -3.42692308 0.31153846 0 0 Z " fill="#0F0E0E" transform="translate(576.75,232.75)"/>
<path d="M0 0 C0 3 0 3 -1.375 4.6875 C-3 6 -3 6 -5 6 C-5 6.66 -5 7.32 -5 8 C-5.66 7.67 -6.32 7.34 -7 7 C-4.66666667 4.66666667 -2.33333333 2.33333333 0 0 Z " fill="#080809" transform="translate(464,96)"/>
<path d="M0 0 C2.64 0 5.28 0 8 0 C8 0.33 8 0.66 8 1 C5.36 1.33 2.72 1.66 0 2 C0 1.34 0 0.68 0 0 Z " fill="#232221" transform="translate(506,22)"/>
<path d="M0 0 C0.33 0 0.66 0 1 0 C1 2.64 1 5.28 1 8 C0.67 8 0.34 8 0 8 C0 5.36 0 2.72 0 0 Z " fill="#232121" transform="translate(674,61)"/>
<path d="M0 0 C1.65 0 3.3 0 5 0 C5 0.33 5 0.66 5 1 C3.35 1 1.7 1 0 1 C0 0.67 0 0.34 0 0 Z " fill="#252221" transform="translate(458,30)"/>
<path d="M0 0 C1.65 0 3.3 0 5 0 C5 0.33 5 0.66 5 1 C3.35 1 1.7 1 0 1 C0 0.67 0 0.34 0 0 Z " fill="#232122" transform="translate(561,14)"/>
<path d="M0 0 C0.99 0.33 1.98 0.66 3 1 C2.01 1 1.02 1 0 1 C0 0.67 0 0.34 0 0 Z " fill="#21211F" transform="translate(14,587)"/>
<path d="M0 0 C3 1 3 1 3 1 Z " fill="#544424" transform="translate(348,206)"/>
<path d="M0 0 C3 1 3 1 3 1 Z " fill="#EBC130" transform="translate(88,184)"/>
<path d="" fill="#6C5826" transform="translate(0,0)"/>
<path d="" fill="#222222" transform="translate(0,0)"/>
<path d="M0 0 C3 1 3 1 3 1 Z " fill="#DCB62F" transform="translate(365,131)"/>
<path d="M0 0 C3 1 3 1 3 1 Z " fill="#EDC632" transform="translate(341,131)"/>
<path d="M0 0 C3 1 3 1 3 1 Z " fill="#F6CF32" transform="translate(258,131)"/>
<path d="M0 0 C3 1 3 1 3 1 Z " fill="#232221" transform="translate(445,32)"/>
<path d="M0 0 C0.66 0.66 1.32 1.32 2 2 C1.34 2 0.68 2 0 2 C0 1.34 0 0.68 0 0 Z " fill="#232422" transform="translate(556,14)"/>
<path d="M0 0 C0.33 0.66 0.66 1.32 1 2 C0.34 1.67 -0.32 1.34 -1 1 C-0.67 0.67 -0.34 0.34 0 0 Z " fill="#212121" transform="translate(554,14)"/>
<path d="M0 0 C3 1 3 1 3 1 Z " fill="#242524" transform="translate(611,6)"/>
<path d="M0 0 C0.66 0.66 1.32 1.32 2 2 C1.34 2 0.68 2 0 2 C0 1.34 0 0.68 0 0 Z " fill="#242120" transform="translate(637,1)"/>
<path d="" fill="#222022" transform="translate(0,0)"/>
<path d="M0 0 C2 1 2 1 2 1 Z " fill="#282625" transform="translate(374,395)"/>
<path d="" fill="#272726" transform="translate(0,0)"/>
<path d="M0 0 C2 1 2 1 2 1 Z " fill="#262524" transform="translate(635,253)"/>
<path d="M0 0 C2 1 2 1 2 1 Z " fill="#E6BF2E" transform="translate(169,184)"/>
<path d="M0 0 C2 1 2 1 2 1 Z " fill="#E8C030" transform="translate(145,184)"/>
<path d="M0 0 C2 1 2 1 2 1 Z " fill="#E9C02F" transform="translate(121,184)"/>
<path d="M0 0 C2 1 2 1 2 1 Z " fill="#EBC230" transform="translate(81,184)"/>
<path d="M0 0 C2 1 2 1 2 1 Z " fill="#ECC431" transform="translate(71,184)"/>
<path d="M0 0 C2 1 2 1 2 1 Z " fill="#EDC332" transform="translate(65,184)"/>
<path d="" fill="#685525" transform="translate(0,0)"/>
<path d="M0 0 C2 1 2 1 2 1 Z " fill="#645023" transform="translate(382,174)"/>
<path d="" fill="#232222" transform="translate(0,0)"/>
<path d="" fill="#232323" transform="translate(0,0)"/>
<path d="" fill="#4A3F24" transform="translate(0,0)"/>
<path d="" fill="#B0932E" transform="translate(0,0)"/>
<path d="M0 0 C2 1 2 1 2 1 Z " fill="#C4A32E" transform="translate(378,131)"/>
<path d="M0 0 C2 1 2 1 2 1 Z " fill="#CEAA2D" transform="translate(374,131)"/>
<path d="M0 0 C2 1 2 1 2 1 Z " fill="#D1AE2F" transform="translate(371,131)"/>
<path d="M0 0 C2 1 2 1 2 1 Z " fill="#EAC330" transform="translate(347,131)"/>
<path d="M0 0 C2 1 2 1 2 1 Z " fill="#F0C832" transform="translate(331,131)"/>
<path d="M0 0 C2 1 2 1 2 1 Z " fill="#F2C931" transform="translate(326,131)"/>
<path d="M0 0 C2 1 2 1 2 1 Z " fill="#F6CD32" transform="translate(302,131)"/>
<path d="M0 0 C2 1 2 1 2 1 Z " fill="#F6CE32" transform="translate(286,131)"/>
<path d="M0 0 C2 1 2 1 2 1 Z " fill="#F7CD33" transform="translate(275,131)"/>
<path d="M0 0 C2 1 2 1 2 1 Z " fill="#F5CE32" transform="translate(270,131)"/>
<path d="M0 0 C2 1 2 1 2 1 Z " fill="#3C3424" transform="translate(429,126)"/>
<path d="" fill="#222122" transform="translate(0,0)"/>
<path d="" fill="#222020" transform="translate(0,0)"/>
<path d="M0 0 C2 1 2 1 2 1 Z " fill="#242323" transform="translate(548,16)"/>
<path d="M0 0 C2 1 2 1 2 1 Z " fill="#222321" transform="translate(607,7)"/>
<path d="M0 0 C2 1 2 1 2 1 Z " fill="#23211F" transform="translate(616,6)"/>
<path d="" fill="#242422" transform="translate(0,0)"/>
<path d="" fill="#221F20" transform="translate(0,0)"/>
<path d="" fill="#242020" transform="translate(0,0)"/>
<path d="" fill="#242221" transform="translate(0,0)"/>
<path d="" fill="#212122" transform="translate(0,0)"/>
<path d="" fill="#232223" transform="translate(0,0)"/>
<path d="" fill="#232221" transform="translate(0,0)"/>
<path d="" fill="#232123" transform="translate(0,0)"/>
<path d="" fill="#242224" transform="translate(0,0)"/>
<path d="" fill="#232323" transform="translate(0,0)"/>
<path d="" fill="#262624" transform="translate(0,0)"/>
<path d="" fill="#222221" transform="translate(0,0)"/>
<path d="" fill="#222222" transform="translate(0,0)"/>
<path d="" fill="#242121" transform="translate(0,0)"/>
<path d="" fill="#232321" transform="translate(0,0)"/>
<path d="" fill="#212120" transform="translate(0,0)"/>
<path d="" fill="#232423" transform="translate(0,0)"/>
<path d="" fill="#222220" transform="translate(0,0)"/>
<path d="" fill="#212222" transform="translate(0,0)"/>
<path d="" fill="#222224" transform="translate(0,0)"/>
<path d="" fill="#232321" transform="translate(0,0)"/>
<path d="" fill="#222122" transform="translate(0,0)"/>
<path d="" fill="#242323" transform="translate(0,0)"/>
<path d="" fill="#2A2A27" transform="translate(0,0)"/>
<path d="" fill="#272624" transform="translate(0,0)"/>
<path d="" fill="#282627" transform="translate(0,0)"/>
<path d="" fill="#2A2828" transform="translate(0,0)"/>
<path d="" fill="#29282A" transform="translate(0,0)"/>
<path d="" fill="#292727" transform="translate(0,0)"/>
<path d="" fill="#272623" transform="translate(0,0)"/>
<path d="" fill="#292825" transform="translate(0,0)"/>
<path d="" fill="#262926" transform="translate(0,0)"/>
<path d="" fill="#282625" transform="translate(0,0)"/>
<path d="" fill="#2A2827" transform="translate(0,0)"/>
<path d="" fill="#2A2726" transform="translate(0,0)"/>
<path d="" fill="#262424" transform="translate(0,0)"/>
<path d="" fill="#292524" transform="translate(0,0)"/>
<path d="" fill="#272625" transform="translate(0,0)"/>
<path d="" fill="#2B2725" transform="translate(0,0)"/>
<path d="" fill="#272724" transform="translate(0,0)"/>
<path d="" fill="#292626" transform="translate(0,0)"/>
<path d="" fill="#272322" transform="translate(0,0)"/>
<path d="" fill="#22211F" transform="translate(0,0)"/>
<path d="" fill="#292627" transform="translate(0,0)"/>
<path d="" fill="#282626" transform="translate(0,0)"/>
<path d="" fill="#292827" transform="translate(0,0)"/>
<path d="" fill="#2B2A27" transform="translate(0,0)"/>
<path d="" fill="#262725" transform="translate(0,0)"/>
<path d="" fill="#282626" transform="translate(0,0)"/>
<path d="" fill="#292527" transform="translate(0,0)"/>
<path d="" fill="#282525" transform="translate(0,0)"/>
<path d="" fill="#292728" transform="translate(0,0)"/>
<path d="" fill="#292623" transform="translate(0,0)"/>
<path d="" fill="#292726" transform="translate(0,0)"/>
<path d="" fill="#252526" transform="translate(0,0)"/>
<path d="" fill="#2B2726" transform="translate(0,0)"/>
<path d="" fill="#272726" transform="translate(0,0)"/>
<path d="" fill="#282625" transform="translate(0,0)"/>
<path d="" fill="#2A2828" transform="translate(0,0)"/>
<path d="" fill="#2A292A" transform="translate(0,0)"/>
<path d="" fill="#282728" transform="translate(0,0)"/>
<path d="" fill="#272624" transform="translate(0,0)"/>
<path d="" fill="#2A2726" transform="translate(0,0)"/>
<path d="" fill="#282826" transform="translate(0,0)"/>
<path d="" fill="#262925" transform="translate(0,0)"/>
<path d="" fill="#272723" transform="translate(0,0)"/>
<path d="" fill="#292828" transform="translate(0,0)"/>
<path d="" fill="#282525" transform="translate(0,0)"/>
<path d="" fill="#292725" transform="translate(0,0)"/>
<path d="" fill="#272525" transform="translate(0,0)"/>
<path d="" fill="#252425" transform="translate(0,0)"/>
<path d="" fill="#282827" transform="translate(0,0)"/>
<path d="" fill="#252525" transform="translate(0,0)"/>
<path d="" fill="#362F24" transform="translate(0,0)"/>
<path d="" fill="#292625" transform="translate(0,0)"/>
<path d="" fill="#282625" transform="translate(0,0)"/>
<path d="" fill="#212020" transform="translate(0,0)"/>
<path d="" fill="#282928" transform="translate(0,0)"/>
<path d="" fill="#262626" transform="translate(0,0)"/>
<path d="" fill="#3D3426" transform="translate(0,0)"/>
<path d="" fill="#272725" transform="translate(0,0)"/>
<path d="" fill="#292724" transform="translate(0,0)"/>
<path d="" fill="#242223" transform="translate(0,0)"/>
<path d="" fill="#483E29" transform="translate(0,0)"/>
<path d="" fill="#262625" transform="translate(0,0)"/>
<path d="" fill="#2A2827" transform="translate(0,0)"/>
<path d="" fill="#292624" transform="translate(0,0)"/>
<path d="" fill="#2B2929" transform="translate(0,0)"/>
<path d="" fill="#292825" transform="translate(0,0)"/>
<path d="" fill="#262524" transform="translate(0,0)"/>
<path d="" fill="#272623" transform="translate(0,0)"/>
<path d="" fill="#272626" transform="translate(0,0)"/>
<path d="" fill="#262324" transform="translate(0,0)"/>
<path d="" fill="#594825" transform="translate(0,0)"/>
<path d="" fill="#282726" transform="translate(0,0)"/>
<path d="" fill="#282423" transform="translate(0,0)"/>
<path d="" fill="#292926" transform="translate(0,0)"/>
<path d="" fill="#242424" transform="translate(0,0)"/>
<path d="" fill="#6A5726" transform="translate(0,0)"/>
<path d="" fill="#2A2726" transform="translate(0,0)"/>
<path d="" fill="#282725" transform="translate(0,0)"/>
<path d="" fill="#6E5927" transform="translate(0,0)"/>
<path d="" fill="#292825" transform="translate(0,0)"/>
<path d="" fill="#755E29" transform="translate(0,0)"/>
<path d="" fill="#7E662C" transform="translate(0,0)"/>
<path d="" fill="#766128" transform="translate(0,0)"/>
<path d="" fill="#7D662B" transform="translate(0,0)"/>
<path d="" fill="#292626" transform="translate(0,0)"/>
<path d="" fill="#2C2825" transform="translate(0,0)"/>
<path d="" fill="#715A27" transform="translate(0,0)"/>
<path d="" fill="#705B27" transform="translate(0,0)"/>
<path d="" fill="#735B29" transform="translate(0,0)"/>
<path d="" fill="#745C26" transform="translate(0,0)"/>
<path d="" fill="#765E25" transform="translate(0,0)"/>
<path d="" fill="#745E24" transform="translate(0,0)"/>
<path d="" fill="#554626" transform="translate(0,0)"/>
<path d="" fill="#7B6429" transform="translate(0,0)"/>
<path d="" fill="#7B6129" transform="translate(0,0)"/>
<path d="" fill="#8A702A" transform="translate(0,0)"/>
<path d="" fill="#292724" transform="translate(0,0)"/>
<path d="" fill="#282624" transform="translate(0,0)"/>
<path d="" fill="#282825" transform="translate(0,0)"/>
<path d="" fill="#DAB72D" transform="translate(0,0)"/>
<path d="" fill="#2A2824" transform="translate(0,0)"/>
<path d="" fill="#2A2927" transform="translate(0,0)"/>
<path d="" fill="#292827" transform="translate(0,0)"/>
<path d="" fill="#E9C430" transform="translate(0,0)"/>
<path d="" fill="#2A2625" transform="translate(0,0)"/>
<path d="" fill="#E6C333" transform="translate(0,0)"/>
<path d="" fill="#2B2926" transform="translate(0,0)"/>
<path d="" fill="#282725" transform="translate(0,0)"/>
<path d="" fill="#282625" transform="translate(0,0)"/>
<path d="" fill="#604F24" transform="translate(0,0)"/>
<path d="" fill="#615025" transform="translate(0,0)"/>
<path d="" fill="#EFC82E" transform="translate(0,0)"/>
<path d="" fill="#665427" transform="translate(0,0)"/>
<path d="" fill="#E3BB2E" transform="translate(0,0)"/>
<path d="" fill="#E4BB2D" transform="translate(0,0)"/>
<path d="" fill="#EEC630" transform="translate(0,0)"/>
<path d="" fill="#E9BF30" transform="translate(0,0)"/>
<path d="" fill="#E9C12F" transform="translate(0,0)"/>
<path d="" fill="#E9C132" transform="translate(0,0)"/>
<path d="" fill="#EAC031" transform="translate(0,0)"/>
<path d="" fill="#E9C131" transform="translate(0,0)"/>
<path d="" fill="#E8C032" transform="translate(0,0)"/>
<path d="" fill="#EAC132" transform="translate(0,0)"/>
<path d="" fill="#EAC132" transform="translate(0,0)"/>
<path d="" fill="#EAC130" transform="translate(0,0)"/>
<path d="" fill="#EBC230" transform="translate(0,0)"/>
<path d="" fill="#EBC431" transform="translate(0,0)"/>
<path d="" fill="#EDC32F" transform="translate(0,0)"/>
<path d="" fill="#EEC531" transform="translate(0,0)"/>
<path d="" fill="#635025" transform="translate(0,0)"/>
<path d="" fill="#242423" transform="translate(0,0)"/>
<path d="" fill="#CFAE2B" transform="translate(0,0)"/>
<path d="" fill="#232323" transform="translate(0,0)"/>
<path d="" fill="#242324" transform="translate(0,0)"/>
<path d="" fill="#655327" transform="translate(0,0)"/>
<path d="" fill="#675426" transform="translate(0,0)"/>
<path d="" fill="#222221" transform="translate(0,0)"/>
<path d="" fill="#5E4E25" transform="translate(0,0)"/>
<path d="" fill="#D8B22B" transform="translate(0,0)"/>
<path d="" fill="#514528" transform="translate(0,0)"/>
<path d="" fill="#544628" transform="translate(0,0)"/>
<path d="" fill="#C4A42D" transform="translate(0,0)"/>
<path d="" fill="#B7992E" transform="translate(0,0)"/>
<path d="" fill="#C4A32F" transform="translate(0,0)"/>
<path d="" fill="#DEB933" transform="translate(0,0)"/>
<path d="" fill="#E6C032" transform="translate(0,0)"/>
<path d="" fill="#F0C633" transform="translate(0,0)"/>
<path d="" fill="#F1CA33" transform="translate(0,0)"/>
<path d="" fill="#F3CA34" transform="translate(0,0)"/>
<path d="" fill="#F5CB32" transform="translate(0,0)"/>
<path d="" fill="#F5CD30" transform="translate(0,0)"/>
<path d="" fill="#F5CD31" transform="translate(0,0)"/>
<path d="" fill="#F6CE33" transform="translate(0,0)"/>
<path d="" fill="#232322" transform="translate(0,0)"/>
<path d="" fill="#2D2C29" transform="translate(0,0)"/>
<path d="" fill="#2A2726" transform="translate(0,0)"/>
<path d="" fill="#282826" transform="translate(0,0)"/>
<path d="" fill="#252423" transform="translate(0,0)"/>
<path d="" fill="#282724" transform="translate(0,0)"/>
<path d="" fill="#2A2722" transform="translate(0,0)"/>
<path d="" fill="#2A2623" transform="translate(0,0)"/>
<path d="" fill="#EAC331" transform="translate(0,0)"/>
<path d="" fill="#EEC72F" transform="translate(0,0)"/>
<path d="" fill="#211F21" transform="translate(0,0)"/>
<path d="" fill="#EDC732" transform="translate(0,0)"/>
<path d="" fill="#ECC630" transform="translate(0,0)"/>
<path d="" fill="#F1CB32" transform="translate(0,0)"/>
<path d="" fill="#2A2723" transform="translate(0,0)"/>
<path d="" fill="#292620" transform="translate(0,0)"/>
<path d="" fill="#282720" transform="translate(0,0)"/>
<path d="" fill="#292522" transform="translate(0,0)"/>
<path d="" fill="#232120" transform="translate(0,0)"/>
<path d="" fill="#24221E" transform="translate(0,0)"/>
<path d="" fill="#252321" transform="translate(0,0)"/>
<path d="" fill="#252421" transform="translate(0,0)"/>
<path d="" fill="#252422" transform="translate(0,0)"/>
<path d="" fill="#262321" transform="translate(0,0)"/>
<path d="" fill="#21211F" transform="translate(0,0)"/>
<path d="" fill="#222121" transform="translate(0,0)"/>
<path d="" fill="#242421" transform="translate(0,0)"/>
<path d="" fill="#252423" transform="translate(0,0)"/>
<path d="" fill="#232121" transform="translate(0,0)"/>
<path d="" fill="#242321" transform="translate(0,0)"/>
<path d="" fill="#242223" transform="translate(0,0)"/>
<path d="" fill="#232221" transform="translate(0,0)"/>
<path d="" fill="#22211F" transform="translate(0,0)"/>
<path d="" fill="#262421" transform="translate(0,0)"/>
<path d="" fill="#252321" transform="translate(0,0)"/>
<path d="" fill="#242120" transform="translate(0,0)"/>
<path d="" fill="#22201E" transform="translate(0,0)"/>
<path d="" fill="#1F201D" transform="translate(0,0)"/>
<path d="" fill="#211E1E" transform="translate(0,0)"/>
<path d="" fill="#242321" transform="translate(0,0)"/>
<path d="" fill="#22211E" transform="translate(0,0)"/>
<path d="" fill="#232322" transform="translate(0,0)"/>
</svg>
